# xmcd CD database file
#
# Track frame offsets:
#	150
#	12005
#	34539
#	59081
#	83733
#	105349
#	128463
#	140445
#	162767
#	184280
#	209466
#	239586
#	262003
#	295087
#	326372
#
# Disc length: 4766 seconds
#
# Revision: 0
# Processed by: cddbd v1.5PL3 Copyright (c) Steve Scherf et al.
# Submitted via: CDex 1.51
#
DISCID=cc129c0f
DTITLE=Various Artist - Sabor Dominicano Salsa Top 100 CD 2
DYEAR=2004
DGENRE=Salsa
TTITLE0=Ismael Rivera - El Pañuelito
TTITLE1=Raphy Leavitt y La Selecta - Jibaro Soy
TTITLE2=Ismael Miranda - Cipriano Almenteros
TTITLE3=Larry Harlow and Ismael Miranda - Señor Sereno
TTITLE4=Celia Cruz Y Pacheco - Quimbara
TTITLE5=Lalo Rodríguez - Devórame Otra Vez
TTITLE6=Celia Cruz Y La Sonora Matancera - El Yerberito
TTITLE7=Oscar D'León - Mi Bajo Y Yo
TTITLE8=Frankie Ruiz - Desnúdate Mujer
TTITLE9=Ismael Rivera - El Nazareno
TTITLE10=Hector Lavoe - Periódico De Ayer
TTITLE11=Eddie Santiago - Tú Me Quemas
TTITLE12=Rubén Blades - Pedro Navaja
TTITLE13=Roberto Torres -  Caballo Viejo
TTITLE14=Rubén Blades and Willie Colón - Tiburón
EXTD=YEAR: 2004
EXTT0=
EXTT1=
EXTT2=
EXTT3=
EXTT4=
EXTT5=
EXTT6=
EXTT7=
EXTT8=
EXTT9=
EXTT10=
EXTT11=
EXTT12=
EXTT13=
EXTT14=
PLAYORDER=
